<svg xmlns="http://www.w3.org/2000/svg" width="16" height="16" viewBox="0 0 16 16"><defs><style>.a{fill:none;}</style></defs><path class="a" d="M0,0H16V16H0Z"/><path d="M13.613,5.673A1,1,0,0,0,12.667,5H5.333a1,1,0,0,0-.947.673L3,9.667V15a.669.669,0,0,0,.667.667h.667A.669.669,0,0,0,5,15v-.667h8V15a.669.669,0,0,0,.667.667h.667A.669.669,0,0,0,15,15V9.667Zm-8.28,6.66a1,1,0,1,1,1-1A1,1,0,0,1,5.333,12.333Zm7.333,0a1,1,0,1,1,1-1A1,1,0,0,1,12.667,12.333ZM4.333,9l1-3h7.333l1,3Z" transform="translate(-1 -1.667)"/></svg>