<svg xmlns="http://www.w3.org/2000/svg" xmlns:xlink="http://www.w3.org/1999/xlink" width="77.979" height="17.098" viewBox="0 0 77.979 17.098">
  <defs>
    <clipPath id="clip-path">
      <rect id="Rectangle_14927" data-name="Rectangle 14927" width="61.748" height="17.097" fill="#444"/>
    </clipPath>
  </defs>
  <g id="fast" transform="translate(11210.715 16865.748)">
    <path id="Path_3411" data-name="Path 3411" d="M2.927.108,0,16.8H4.169l1.2-6.776h6.561l.59-3.42H5.978l.528-3.049H13.52L14.132.108Z" transform="translate(-11194.483 -16865.652)" fill="#444"/>
    <path id="Path_3412" data-name="Path 3412" d="M16.7,4.726,18,10.046H13.6ZM15.74.108,5.328,16.8H9.634l2.01-3.446h7.149l.829,3.446H23.68L19.122.108Z" transform="translate(-11189.24 -16865.652)" fill="#444"/>
    <path id="Path_3415" data-name="Path 3415" d="M11.257,0V2.011L0,1.006Z" transform="translate(-11165.472 -16865.498)" fill="#444"/>
    <g id="Group_6012" data-name="Group 6012" transform="translate(-11210.715 -16865.498)">
      <path id="Path_3407" data-name="Path 3407" d="M17.137,0V2.011L0,1.006Z" transform="translate(1.393 5.028)" fill="#444"/>
      <path id="Path_3410" data-name="Path 3410" d="M12.463,0V2.011L0,1.006Z" transform="translate(6.796 0)" fill="#444"/>
      <path id="Path_3408" data-name="Path 3408" d="M12.463,0V2.011L0,1.006Z" transform="translate(5.402 9.554)" fill="#444"/>
      <path id="Path_3409" data-name="Path 3409" d="M17.137,0V2.011L0,1.006Z" transform="translate(0 14.583)" fill="#444"/>
    </g>
    <g id="Group_6008" data-name="Group 6008" transform="translate(-11194.483 -16865.748)">
      <g id="Group_6007" data-name="Group 6007" clip-path="url(#clip-path)">
        <path id="Path_3413" data-name="Path 3413" d="M18.312,16.617a9.723,9.723,0,0,1-3.023-1.347l1.94-3.115a9.3,9.3,0,0,0,5.294,1.569q2.74,0,2.88-1.36a1.112,1.112,0,0,0-.644-1.136,12.576,12.576,0,0,0-2.307-.9,20.1,20.1,0,0,1-2.73-.993,4.566,4.566,0,0,1-1.778-1.475A3.555,3.555,0,0,1,17.4,5.318a5.073,5.073,0,0,1,1.179-2.8A6.565,6.565,0,0,1,21.29.656,10.724,10.724,0,0,1,25.163,0,11.727,11.727,0,0,1,28.6.492,6.29,6.29,0,0,1,31.11,1.829L29.217,4.943a7.165,7.165,0,0,0-2.151-1.159,7.238,7.238,0,0,0-2.346-.41,4.538,4.538,0,0,0-2.08.41,1.423,1.423,0,0,0-.866,1.136,1.1,1.1,0,0,0,.642,1.147,12.34,12.34,0,0,0,2.334.866,20.2,20.2,0,0,1,2.744.984,4.547,4.547,0,0,1,1.768,1.452,3.446,3.446,0,0,1,.55,2.482,5.069,5.069,0,0,1-2.3,3.876,9.74,9.74,0,0,1-5.505,1.37,14.2,14.2,0,0,1-3.7-.48" transform="translate(14.547 0.001)" fill="#444"/>
        <path id="Path_3414" data-name="Path 3414" d="M28.952,3.668H23.941l.65-3.559H38.969l-.626,3.559H33.355L30.988,16.782H26.562Z" transform="translate(22.779 0.104)" fill="#444"/>
      </g>
    </g>
  </g>
</svg>
