<svg xmlns="http://www.w3.org/2000/svg" width="18.824" height="20" viewBox="0 0 18.824 20">
  <g id="in_progress_application-business" data-name="in progress application-business" transform="translate(129 20125)">
    <line id="Line_371" data-name="Line 371" x2="15.294" transform="translate(-127.235 -20112.648)" fill="none" stroke="#fff" stroke-width="2"/>
    <g id="Group_5368" data-name="Group 5368" transform="translate(-129 -20125)">
      <g id="Rectangle_14391" data-name="Rectangle 14391" transform="translate(0 3.529)">
        <rect id="Rectangle_14393" data-name="Rectangle 14393" width="18.824" height="16.471" rx="2" fill="none"/>
        <path id="Path_3240" data-name="Path 3240" d="M761.588,894h4.706a1.177,1.177,0,0,1,1.176,1.177v11.765a1.177,1.177,0,0,1-1.176,1.176H752.177A1.177,1.177,0,0,1,751,906.941V895.177A1.177,1.177,0,0,1,752.177,894h4.706" transform="translate(-749.824 -892.824)" fill="none" stroke="#fff" stroke-width="2"/>
      </g>
      <g id="Rectangle_14392" data-name="Rectangle 14392" transform="translate(5.882 0)">
        <rect id="Rectangle_14394" data-name="Rectangle 14394" width="7.059" height="9.412" rx="2" fill="none"/>
        <rect id="Rectangle_14395" data-name="Rectangle 14395" width="4.706" height="7.059" rx="1" transform="translate(1.176 1.176)" fill="none" stroke="#fff" stroke-width="2"/>
      </g>
    </g>
  </g>
</svg>
