<svg viewBox="0 0 360 457" fill="none" xmlns="http://www.w3.org/2000/svg">
  <g style="mixBlendMode:overlay" opacity=".05" filter="url(#a)">
    <rect x="-119" width="598" height="425.244" rx="8.306" fill="#0E0F37"/>
    <path stroke="#0A0B2E" stroke-width="16.611" d="M-129.737 98.264-2.574-8.439"/>
    <path stroke="#0A0B2E" stroke-width="20.764" d="M-132.318 320.185 288.437-32.87m-39.308 481.277L494.53 242.49"/>
    <path stroke="#0A0B2E" stroke-width="12.458" d="M-44.035 450.905 495.694-1.982"/>
    <path stroke="#0A0B2E" stroke-width="24.917" d="M-149.046 193.068 91.871-9.085m-240.889 273.957L193.855-22.833"/>
    <path stroke="#0A0B2E" stroke-width="41.528" d="m154.195 442.062 342.872-287.704M69.371 447.52 488.6 95.745"/>
    <path stroke="#0A0B2E" stroke-width="12.458" d="M-145.014 235.505 148.761-11.001"/>
    <path stroke="#0A0B2E" stroke-width="4.153" d="M-130.309 129.798 43.293-15.871"/>
    <path stroke="#0A0B2E" stroke-width="37.375" d="M-144.098 424.01 382.484-17.845"/>
    <path stroke="#0A0B2E" stroke-width="12.458" d="M-133.801 295.24 253.434-29.689m-18.547 474.872 253.892-213.04"/>
    <path stroke="#0A0B2E" stroke-width="19.933" d="M-96.538 445.724 450.233-13.072"/>
    <path stroke="#0A0B2E" stroke-width="8.306" d="M-135.957 148.466 54.751-11.557M-138.28 371.378 344.231-33.496m-72.14 494.354 226.588-190.13"/>
    <path stroke="#0A0B2E" stroke-width="41.943" d="M-10.876 445.481 496.322 19.892"/>
    <path stroke="#0A0B2E" stroke-width="45.681" d="m347.668 455.344 148.584-124.677"/>
    <path stroke="#4CC082" stroke-width="14.119" stroke-linecap="round" d="m26.802 234.739 53.625-44.997"/>
    <path stroke="#4CC082" stroke-width="8.306" stroke-linecap="round" d="m157.256 426.935 123.383-103.53"/>
    <path stroke="#6F8EFF" stroke-width="9.136" stroke-linecap="round" d="m139.45 168.898 57.442-48.2"/>
    <path stroke="#8D55E9" stroke-width="13.289" stroke-linecap="round" d="m41.138 38.306 23.753-19.932"/>
    <path stroke="#EC6C5A" stroke-width="4.983" stroke-linecap="round" d="m173.039 261.571 96.473-80.951"/>
    <path stroke="#8D55E9" stroke-width="4.983" stroke-linecap="round" d="m27.9 435.699 65.781-55.196"/>
    <path stroke="#EC6C5A" stroke-width="10.797" stroke-linecap="round" d="m303.893 137.304 41.366-34.71"/>
    <path stroke="#FF5761" stroke-width=".831" stroke-linecap="round" d="m237.991 416.58 141.21-118.489"/>
    <path stroke="#4CC082" stroke-width=".415" stroke-linecap="round" d="M-128.93 180.592 13.585 61.007M8.931 181.666 130.935 79.293"/>
    <path stroke="#E350F0" stroke-width="16.611" stroke-linecap="round" d="m99.214 249.091 33.299-27.941"/>
    <path stroke="#E350F0" stroke-width="10.797" stroke-linecap="round" d="m51.99 372.89 66.773-56.029"/>
    <path stroke="#EC6C5A" stroke-width="2.492" stroke-linecap="round" d="m294.815 288.757 139.196-116.799"/>
    <path stroke="#4CC082" stroke-width="22.84" stroke-linecap="round" d="m11.974 356.879 14.236-11.945"/>
    <path stroke="#F4DC5A" stroke-width="14.535" stroke-linecap="round" d="m116.528 57.543 53.312-44.735"/>
    <path stroke="#FF5761" stroke-width="17.857" stroke-linecap="round" d="m176.948 305.218 36.436-30.574"/>
    <path stroke="#6E8EFF" stroke-width="20.764" stroke-linecap="round" d="m15.169 140.254 22.18-18.611"/>
    <path stroke="#6E8EFF" stroke-width="13.289" stroke-linecap="round" d="m175.793 100.527 40.154-33.693"/>
    <path stroke="#8D55E9" stroke-width="14.95" stroke-linecap="round" d="m298.03 408.705 34.837-29.232"/>
    <path stroke="#8D55E9" stroke-width="14.535" stroke-linecap="round" d="m279.317 234.096 59.817-50.193"/>
    <path stroke="#F4DC5A" stroke-width=".831" stroke-linecap="round" d="M21.415 91.67 168.338-31.612"/>
    <path stroke="#8D55E9" stroke-width=".831" stroke-linecap="round" d="m346.873 277.508 152.444-127.916"/>
    <path stroke="#E350F0" stroke-width="1.661" stroke-linecap="round" d="M-42.831 48.612 24.566-7.941"/>
    <path stroke="#fff" stroke-width="1.661" stroke-linecap="round" d="M-91.489 370.319 72.318 232.868"/>
    <path stroke="#fff" stroke-width=".831" stroke-linecap="round" d="m333.289 428.566 89.638-75.216"/>
    <path stroke="#fff" stroke-width="2.076" stroke-linecap="round" d="M259.215 220.298 407.587 95.799"/>
    <path stroke="#fff" stroke-width="1.246" stroke-linecap="round" d="m146.928 382.553 81.954-68.767"/>
    <path stroke="#fff" stroke-width=".415" stroke-linecap="round" d="m290.896 109.406 113.901-95.575"/>
    <path stroke="#9E8F4D" stroke-width=".831" stroke-linecap="round" d="m131.464 260.441 149.102-125.112"/>
    <path stroke="#F4DC5A" stroke-width="5.399" stroke-linecap="round" d="m238.736 113.853 113.69-95.397"/>
    <path stroke="#FF5761" stroke-width="3.322" stroke-linecap="round" d="m94.242 130.954 105.334-88.385"/>
    <path stroke="#4CC082" stroke-width="3.322" stroke-linecap="round" d="m358.359 388.801 85.984-72.149"/>
  </g>
  <defs>
    <filter id="a" x="-150.146" y="0" width="629.146" height="456.39" filterUnits="userSpaceOnUse" color-interpolation-filters="sRGB">
      <feFlood flood-opacity="0" result="BackgroundImageFix"/>
      <feColorMatrix in="SourceAlpha" values="0 0 0 0 0 0 0 0 0 0 0 0 0 0 0 0 0 0 127 0"/>
      <feOffset dx="-20.764" dy="20.764"/>
      <feGaussianBlur stdDeviation="5.191"/>
      <feColorMatrix values="0 0 0 0 0 0 0 0 0 0 0 0 0 0 0 0 0 0 0.15 0"/>
      <feBlend in2="BackgroundImageFix" result="effect1_dropShadow"/>
      <feBlend in="SourceGraphic" in2="effect1_dropShadow" result="shape"/>
    </filter>
  </defs>
</svg>