<svg viewBox="0 0 233 212" fill="none" xmlns="http://www.w3.org/2000/svg">
  <g opacity=".5" filter="url(#a)">
    <path d="m97 99.75 83.797 48.223 45.852-26.878-90.913-52.176L97 99.75z" fill="#222"/>
  </g>
  <path d="M140.48 62.4 99.995 85.965l-.05 11.506 81.373 47.033 40.485-23.567.051-11.506" fill="#406325"/>
  <path d="M172.999 90.658c6.705 3.885 6.756 10.194.101 14.079-6.655 3.886-17.546 3.886-24.251 0-6.706-3.885-6.756-10.194-.101-14.08 6.706-3.885 17.545-3.885 24.251 0z" fill="#7DAB4E"/>
  <path d="M204.005 104.031c-5.092 2.978-5.092 7.772.051 10.749l-13.462 7.872c-5.142-2.977-13.411-2.977-18.553 0l-54.199-31.338c5.092-2.977 5.092-7.771-.05-10.749l13.512-7.872c5.142 2.977 13.411 2.977 18.553 0l54.148 31.338zm-55.156.656c6.705 3.886 17.595 3.886 24.251 0 6.655-3.886 6.655-10.194-.101-14.08-6.706-3.885-17.596-3.885-24.251 0-6.655 3.937-6.605 10.194.101 14.08z" fill="#A7BD56"/>
  <path d="m140.48 62.397 81.374 47.032-40.485 23.567-81.374-47.032 40.485-23.567zm50.115 60.254 13.512-7.872c-5.143-2.978-5.143-7.772-.051-10.749l-54.198-31.338c-5.092 2.977-13.411 2.977-18.554 0l-13.512 7.872c5.143 2.977 5.143 7.771.051 10.749l54.198 31.338c5.093-2.977 13.411-2.977 18.554 0z" fill="#7DAB4E"/>
  <path d="m186.762 89.093-40.485 23.566-12.403-7.165 40.485-23.567 12.403 7.166z" fill="#DAC89D"/>
  <path d="m146.227 112.66-.05 11.506L133.774 117l.051-11.506 12.402 7.166z" fill="#877C61"/>
  <path opacity=".3" d="M140.48 54.494 99.995 78.06l-.05 11.506 81.373 47.032v-17.086l8.385-16.601" fill="#000"/>
  <path d="M181.369 132.996v11.456l40.435-23.567v-11.456l-40.435 23.567z" fill="#598D2E"/>
  <path d="M137.891 51.363 97.406 74.93l-.05 11.506 81.373 47.032 40.485-23.566.05-11.506" fill="#406325"/>
  <path d="M170.411 79.622c6.706 3.885 6.756 10.194.101 14.08-6.655 3.885-17.545 3.885-24.251 0-6.705-3.886-6.756-10.195-.1-14.08 6.655-3.886 17.545-3.886 24.25 0z" fill="#7DAB4E"/>
  <path d="M201.418 92.994c-5.092 2.978-5.092 7.772.05 10.749l-13.461 7.872c-5.143-2.977-13.411-2.977-18.554 0l-54.198-31.338c5.092-2.977 5.092-7.771-.051-10.749l13.512-7.872c5.143 2.977 13.411 2.977 18.554 0l54.148 31.338zm-55.157.656c6.706 3.886 17.596 3.886 24.251 0 6.655-3.886 6.655-10.194-.101-14.08-6.705-3.885-17.595-3.885-24.251 0-6.655 3.937-6.604 10.194.101 14.08z" fill="#A7BD56"/>
  <path d="m137.892 51.362 81.374 47.032-40.485 23.567-81.374-47.033 40.485-23.566zm50.115 60.254 13.512-7.872c-5.143-2.978-5.143-7.772-.05-10.75L147.27 61.657c-5.092 2.978-13.411 2.978-18.554 0l-13.511 7.873c5.142 2.977 5.142 7.771.05 10.749l54.199 31.338c5.092-2.977 13.411-2.977 18.553 0z" fill="#7DAB4E"/>
  <path d="m184.173 78.058-40.485 23.567-12.403-7.166 40.485-23.567 12.403 7.166z" fill="#DAC89D"/>
  <path d="m143.638 101.624-.05 11.506-12.403-7.166.05-11.506 12.403 7.166z" fill="#877C61"/>
  <path d="M178.78 121.962v11.455l40.434-23.567V98.395l-40.434 23.567z" fill="#598D2E"/>
  <path opacity=".4" d="M181.942 113.04v11.455l37.272-21.986V91.054l-37.272 21.986z" fill="#2D451A"/>
  <path d="m142.634 39.823-40.485 23.566-.051 11.506 81.374 47.033 40.485-23.567.05-11.506" fill="#406325"/>
  <path d="M175.154 68.083c6.706 3.885 6.756 10.193.101 14.08-6.655 3.885-17.545 3.885-24.25 0-6.706-3.887-6.756-10.195-.101-14.08 6.655-3.886 17.545-3.886 24.25 0z" fill="#7DAB4E"/>
  <path d="M206.161 81.456c-5.092 2.977-5.092 7.771.05 10.749l-13.461 7.872c-5.143-2.977-13.411-2.977-18.554 0l-54.198-31.338c5.092-2.978 5.092-7.772-.051-10.749l13.512-7.872c5.143 2.977 13.411 2.977 18.554 0l54.148 31.338zm-55.157.656c6.706 3.886 17.596 3.886 24.251 0 6.655-3.886 6.655-10.194-.101-14.08-6.705-3.885-17.595-3.885-24.25 0-6.655 3.937-6.605 10.194.1 14.08z" fill="#A7BD56"/>
  <path d="m142.636 39.822 81.373 47.033-40.485 23.567-81.374-47.033 40.486-23.567zm50.114 60.255 13.512-7.873c-5.142-2.977-5.142-7.771-.05-10.748l-54.199-31.339c-5.092 2.978-13.411 2.978-18.553 0l-13.512 7.873c5.142 2.977 5.142 7.771.05 10.748l54.199 31.339c5.092-2.977 13.411-2.977 18.553 0z" fill="#7DAB4E"/>
  <path d="m188.916 66.519-40.485 23.567-12.403-7.166 40.485-23.567 12.403 7.166z" fill="#DAC89D"/>
  <path d="m148.381 90.085-.05 11.506-12.403-7.165.051-11.506 12.402 7.165z" fill="#877C61"/>
  <path d="M183.523 110.422v11.456l40.434-23.567V86.856l-40.434 23.566z" fill="#598D2E"/>
  <path d="m141.42 24.616-40.485 23.566-.05 11.506 81.373 47.033 40.485-23.567.051-11.506" fill="#406325"/>
  <path d="m147.168 74.877-.051 11.506-12.402-7.166.05-11.505 12.403 7.165z" fill="#877C61"/>
  <path opacity=".3" d="m141.526 16.548-40.485 23.567-.05 11.506 77.789 45.757.79-15.81 11.179-16.602" fill="#000"/>
  <path d="M173.94 52.875c6.705 3.886 6.756 10.194.101 14.08-6.656 3.886-17.546 3.886-24.251 0-6.706-3.886-6.756-10.194-.101-14.08 6.655-3.885 17.545-3.885 24.251 0z" fill="#7DAB4E"/>
  <path d="M204.946 66.249c-5.092 2.977-5.092 7.771.05 10.749l-13.461 7.872c-5.143-2.977-13.411-2.977-18.554 0l-54.199-31.338c5.093-2.978 5.093-7.772-.05-10.75l13.512-7.872c5.142 2.978 13.411 2.978 18.553 0l54.149 31.339zm-55.157.656c6.706 3.885 17.596 3.885 24.251 0 6.655-3.886 6.655-10.194-.101-14.08-6.705-3.886-17.596-3.886-24.251 0-6.655 3.936-6.604 10.194.101 14.08z" fill="#A7BD56"/>
  <path d="m141.42 24.616 81.374 47.033-40.485 23.567-81.374-47.033 40.485-23.567zm50.115 60.255 13.512-7.873c-5.142-2.977-5.142-7.771-.05-10.749l-54.199-31.338c-5.092 2.977-13.411 2.977-18.554 0l-13.511 7.872c5.142 2.978 5.142 7.772.05 10.75l54.199 31.338c5.092-2.978 13.411-2.978 18.553 0z" fill="#7DAB4E"/>
  <path d="m187.704 51.312-40.485 23.566-12.402-7.165 40.485-23.567 12.402 7.166z" fill="#DAC89D"/>
  <path d="M182.307 95.215v11.456l40.435-23.567V71.648l-40.435 23.567z" fill="#598D2E"/>
  <path d="M136.745 12.003 96.26 35.57l-.05 11.506 81.373 47.033 40.485-23.567.051-11.506" fill="#406325"/>
  <path d="M169.264 40.26c6.705 3.886 6.756 10.194.101 14.08-6.656 3.885-17.546 3.885-24.251 0-6.706-3.886-6.756-10.194-.101-14.08 6.655-3.886 17.545-3.886 24.251 0z" fill="#7DAB4E"/>
  <path d="M200.27 53.633c-5.092 2.978-5.092 7.772.051 10.75l-13.462 7.872c-5.142-2.978-13.411-2.978-18.553 0l-54.199-31.339c5.092-2.977 5.092-7.771-.05-10.748l13.511-7.873c5.143 2.977 13.411 2.977 18.554 0l54.148 31.338zm-55.156.656c6.705 3.886 17.595 3.886 24.25 0 6.656-3.885 6.656-10.193-.1-14.08-6.706-3.885-17.596-3.885-24.251 0-6.655 3.937-6.605 10.195.101 14.08z" fill="#A7BD56"/>
  <path d="m136.743 12 81.373 47.033L177.631 82.6 96.258 35.567 136.743 12zm50.115 60.254 13.511-7.872c-5.142-2.978-5.142-7.772-.05-10.749L146.12 22.295c-5.092 2.977-13.411 2.977-18.553 0l-13.512 7.872c5.142 2.977 5.142 7.772.05 10.749l54.199 31.338c5.092-2.977 13.411-2.977 18.554 0z" fill="#7DAB4E"/>
  <path d="m183.027 38.695-40.485 23.567-12.403-7.166 40.485-23.566 12.403 7.165z" fill="#DAC89D"/>
  <path d="m142.492 62.262-.05 11.506-12.403-7.166.051-11.506 12.402 7.166z" fill="#877C61"/>
  <path d="M177.634 82.599v11.455l40.434-23.567V59.032L177.634 82.6z" fill="#598D2E"/>
  <path d="M144.745.003 104.26 23.57l-.051 11.506 81.374 47.033 40.485-23.567.051-11.506" fill="#406325"/>
  <path d="M177.264 28.26c6.705 3.886 6.756 10.194.101 14.08-6.656 3.885-17.546 3.885-24.251 0-6.706-3.886-6.756-10.194-.101-14.08 6.655-3.886 17.545-3.886 24.251 0z" fill="#7DAB4E"/>
  <path d="M208.27 41.633c-5.092 2.978-5.092 7.772.051 10.75l-13.462 7.872c-5.142-2.978-13.411-2.978-18.553 0l-54.199-31.339c5.092-2.977 5.092-7.771-.05-10.748l13.511-7.873c5.143 2.978 13.411 2.978 18.554 0l54.148 31.338zm-55.156.656c6.705 3.886 17.595 3.886 24.25 0 6.656-3.885 6.656-10.193-.1-14.08-6.706-3.885-17.596-3.885-24.251 0-6.655 3.937-6.605 10.195.101 14.08z" fill="#A7BD56"/>
  <path d="m144.743 0 81.373 47.033L185.631 70.6l-81.373-47.033L144.743 0zm50.115 60.254 13.511-7.872c-5.142-2.977-5.142-7.772-.05-10.749L154.12 10.295c-5.092 2.977-13.411 2.977-18.553 0l-13.512 7.872c5.142 2.977 5.142 7.772.05 10.749l54.199 31.338c5.092-2.977 13.411-2.977 18.554 0z" fill="#7DAB4E"/>
  <path d="m191.027 26.695-40.485 23.567-12.403-7.166 40.485-23.566 12.403 7.165z" fill="#DAC89D"/>
  <path d="m150.492 50.262-.05 11.506-12.403-7.166.051-11.506 12.402 7.166z" fill="#877C61"/>
  <path d="M185.634 70.599v11.455l40.434-23.567V47.032L185.634 70.6z" fill="#598D2E"/>
  <g opacity=".5" filter="url(#b)">
    <path d="m16 106.75 83.797 48.223 45.852-26.878-90.912-52.176L16 106.75z" fill="#222"/>
  </g>
  <path d="M59.48 69.4 18.995 92.965l-.05 11.506 81.373 47.033 40.485-23.567.051-11.506" fill="#406325"/>
  <path d="M91.999 97.658c6.705 3.886 6.756 10.194.1 14.079-6.654 3.886-17.545 3.886-24.25 0-6.706-3.885-6.756-10.193-.1-14.08 6.705-3.885 17.544-3.885 24.25 0z" fill="#7DAB4E"/>
  <path d="M123.005 111.031c-5.092 2.978-5.092 7.772.051 10.749l-13.462 7.872c-5.142-2.977-13.41-2.977-18.553 0L36.842 98.314c5.092-2.977 5.092-7.771-.05-10.749l13.512-7.872c5.142 2.977 13.41 2.977 18.553 0l54.148 31.338zm-55.156.656c6.705 3.886 17.596 3.886 24.25 0 6.656-3.886 6.656-10.194-.1-14.08-6.706-3.885-17.596-3.885-24.251 0-6.655 3.937-6.605 10.194.1 14.08z" fill="#A7BD56"/>
  <path d="m59.48 69.397 81.374 47.032-40.485 23.567-81.374-47.032L59.48 69.397zm50.115 60.254 13.512-7.872c-5.143-2.978-5.143-7.772-.051-10.749L68.858 79.692c-5.092 2.977-13.411 2.977-18.554 0l-13.512 7.872c5.143 2.977 5.143 7.771.05 10.749l54.2 31.338c5.092-2.977 13.41-2.977 18.553 0z" fill="#7DAB4E"/>
  <path d="m105.762 96.093-40.485 23.566-12.403-7.165L93.36 88.927l12.403 7.166z" fill="#DAC89D"/>
  <path d="m65.228 119.66-.05 11.506L52.773 124l.05-11.506 12.404 7.166z" fill="#877C61"/>
  <path opacity=".3" d="M59.48 61.494 18.995 85.06l-.05 11.506 81.373 47.032v-17.086l8.385-16.601" fill="#000"/>
  <path d="M100.369 139.996v11.456l40.435-23.567v-11.456l-40.435 23.567z" fill="#598D2E"/>
  <path d="M56.89 58.363 16.406 81.93l-.05 11.506 81.374 47.032 40.485-23.566.05-11.506" fill="#406325"/>
  <path d="M89.411 86.622c6.706 3.885 6.756 10.194.101 14.079-6.655 3.886-17.545 3.886-24.25 0-6.706-3.885-6.757-10.194-.102-14.08 6.656-3.885 17.546-3.885 24.251 0z" fill="#7DAB4E"/>
  <path d="M120.418 99.994c-5.092 2.978-5.092 7.772.05 10.749l-13.461 7.872c-5.143-2.977-13.411-2.977-18.554 0L34.255 87.277c5.092-2.977 5.092-7.771-.05-10.749l13.511-7.872c5.143 2.977 13.411 2.977 18.554 0l54.148 31.338zm-55.157.656c6.706 3.886 17.596 3.886 24.251 0 6.655-3.886 6.655-10.194-.1-14.08-6.706-3.885-17.597-3.885-24.252 0-6.655 3.937-6.604 10.194.101 14.08z" fill="#A7BD56"/>
  <path d="m56.892 58.362 81.374 47.032-40.485 23.567-81.374-47.033 40.485-23.566zm50.115 60.254 13.512-7.872c-5.143-2.978-5.143-7.772-.05-10.75L66.27 68.657c-5.092 2.978-13.411 2.978-18.554 0L34.205 76.53c5.142 2.977 5.142 7.771.05 10.749l54.199 31.338c5.092-2.977 13.411-2.977 18.553 0z" fill="#7DAB4E"/>
  <path d="m103.173 85.058-40.485 23.567-12.403-7.166L90.77 77.892l12.403 7.166z" fill="#DAC89D"/>
  <path d="m62.638 108.624-.05 11.506-12.403-7.166.05-11.506 12.403 7.166z" fill="#877C61"/>
  <path d="M97.78 128.962v11.455l40.434-23.567v-11.455L97.78 128.962z" fill="#598D2E"/>
  <path opacity=".4" d="M100.942 120.04v11.455l37.272-21.986V98.054l-37.272 21.986z" fill="#2D451A"/>
  <path d="M61.634 46.823 21.149 70.389l-.05 11.506 81.373 47.033 40.485-23.567.05-11.506" fill="#406325"/>
  <path d="M94.154 75.083c6.706 3.885 6.756 10.193.101 14.08-6.655 3.885-17.545 3.885-24.25 0-6.706-3.887-6.756-10.195-.101-14.08 6.655-3.886 17.545-3.886 24.25 0z" fill="#7DAB4E"/>
  <path d="M125.161 88.456c-5.092 2.977-5.092 7.771.05 10.749l-13.461 7.872c-5.143-2.977-13.411-2.977-18.554 0L38.998 75.739c5.092-2.978 5.092-7.772-.05-10.749l13.511-7.872c5.143 2.977 13.411 2.977 18.554 0l54.148 31.338zm-55.157.656c6.706 3.886 17.596 3.886 24.251 0 6.655-3.886 6.655-10.194-.1-14.08-6.706-3.885-17.596-3.885-24.251 0-6.655 3.937-6.605 10.194.1 14.08z" fill="#A7BD56"/>
  <path d="m61.636 46.822 81.373 47.033-40.485 23.567L21.15 70.389l40.486-23.566zm50.114 60.255 13.512-7.873c-5.142-2.977-5.142-7.771-.05-10.748L71.013 57.117c-5.092 2.978-13.41 2.978-18.554 0L38.948 64.99c5.142 2.977 5.142 7.771.05 10.749l54.199 31.338c5.092-2.978 13.411-2.978 18.553 0z" fill="#7DAB4E"/>
  <path d="M107.916 73.519 67.431 97.086 55.028 89.92l40.485-23.567 12.403 7.166z" fill="#DAC89D"/>
  <path d="m67.381 97.085-.05 11.506-12.403-7.166.05-11.505 12.403 7.165z" fill="#877C61"/>
  <path d="M102.523 117.422v11.456l40.434-23.567V93.856l-40.434 23.566z" fill="#598D2E"/>
  <path d="M60.42 31.616 19.935 55.182l-.05 11.506 81.373 47.033 40.485-23.567.051-11.506" fill="#406325"/>
  <path d="m66.168 81.877-.05 11.506-12.403-7.166.05-11.505 12.403 7.165z" fill="#877C61"/>
  <path opacity=".3" d="M60.526 23.548 20.041 47.115l-.05 11.506 77.789 45.757.79-15.81 11.179-16.602" fill="#000"/>
  <path d="M92.94 59.875c6.705 3.886 6.756 10.194.1 14.08-6.655 3.886-17.545 3.886-24.25 0-6.706-3.886-6.756-10.194-.101-14.08 6.655-3.885 17.545-3.885 24.25 0z" fill="#7DAB4E"/>
  <path d="M123.946 73.249c-5.092 2.977-5.092 7.771.05 10.749l-13.461 7.872c-5.143-2.977-13.411-2.977-18.554 0L37.783 60.532c5.092-2.978 5.092-7.772-.05-10.75l13.51-7.872c5.143 2.978 13.412 2.978 18.554 0l54.149 31.339zm-55.157.656c6.706 3.885 17.596 3.885 24.25 0 6.656-3.886 6.656-10.194-.1-14.08-6.705-3.886-17.596-3.886-24.25 0-6.656 3.936-6.605 10.194.1 14.08z" fill="#A7BD56"/>
  <path d="m60.42 31.616 81.374 47.033-40.485 23.567-81.374-47.033L60.42 31.616zm50.115 60.255 13.512-7.873c-5.142-2.977-5.142-7.771-.05-10.749L69.798 41.911c-5.092 2.977-13.411 2.977-18.553 0l-13.512 7.872c5.142 2.978 5.142 7.772.05 10.75L91.982 91.87c5.092-2.978 13.411-2.978 18.553 0z" fill="#7DAB4E"/>
  <path d="M106.704 58.312 66.219 81.878l-12.402-7.165 40.485-23.567 12.402 7.166z" fill="#DAC89D"/>
  <path d="M101.307 102.215v11.456l40.435-23.567V78.648l-40.435 23.567z" fill="#598D2E"/>
  <path d="M55.745 19.003 15.26 42.57l-.05 11.506 81.373 47.033 40.485-23.567.051-11.506" fill="#406325"/>
  <path d="M88.264 47.26c6.705 3.886 6.756 10.194.1 14.08-6.655 3.885-17.545 3.885-24.25 0-6.706-3.886-6.756-10.194-.101-14.08 6.655-3.886 17.545-3.886 24.25 0z" fill="#7DAB4E"/>
  <path d="M119.27 60.633c-5.092 2.978-5.092 7.772.051 10.75l-13.462 7.872c-5.142-2.978-13.41-2.978-18.553 0L33.107 47.916c5.092-2.977 5.092-7.771-.05-10.748l13.511-7.873c5.143 2.977 13.412 2.977 18.554 0l54.148 31.338zm-55.156.656c6.705 3.886 17.595 3.886 24.25 0 6.655-3.885 6.655-10.193-.1-14.08-6.706-3.885-17.596-3.885-24.251 0-6.655 3.937-6.605 10.195.1 14.08z" fill="#A7BD56"/>
  <path d="m55.743 19 81.373 47.033L96.631 89.6 15.258 42.567 55.743 19zm50.115 60.254 13.511-7.872c-5.142-2.978-5.142-7.772-.05-10.749L65.12 29.295c-5.092 2.977-13.41 2.977-18.553 0l-13.512 7.872c5.142 2.977 5.142 7.772.05 10.749l54.199 31.338c5.092-2.977 13.411-2.977 18.554 0z" fill="#7DAB4E"/>
  <path d="M102.027 45.695 61.542 69.262l-12.403-7.166L89.624 38.53l12.403 7.165z" fill="#DAC89D"/>
  <path d="m61.492 69.262-.05 11.506-12.403-7.166.05-11.506 12.403 7.166z" fill="#877C61"/>
  <path d="M96.634 89.599v11.455l40.434-23.567V66.032L96.634 89.6z" fill="#598D2E"/>
  <g opacity=".5" filter="url(#c)">
    <path d="m7 156.75 83.797 48.223 45.852-26.878-90.912-52.176L7 156.75z" fill="#222"/>
  </g>
  <path d="M50.48 119.399 9.995 142.966l-.05 11.506 81.373 47.033 40.485-23.567.05-11.506" fill="#406325"/>
  <path d="M82.999 147.658c6.705 3.886 6.756 10.194.1 14.079-6.655 3.886-17.545 3.886-24.25 0-6.706-3.885-6.756-10.193-.101-14.079 6.705-3.886 17.545-3.886 24.25 0z" fill="#7DAB4E"/>
  <path d="M114.005 161.031c-5.092 2.978-5.092 7.772.051 10.749l-13.462 7.872c-5.142-2.977-13.41-2.977-18.553 0l-54.199-31.338c5.092-2.977 5.092-7.771-.05-10.749l13.511-7.872c5.143 2.977 13.412 2.977 18.554 0l54.148 31.338zm-55.156.656c6.705 3.886 17.595 3.886 24.25 0 6.655-3.886 6.655-10.194-.1-14.079-6.706-3.886-17.596-3.886-24.251 0-6.655 3.936-6.605 10.193.1 14.079z" fill="#A7BD56"/>
  <path d="m50.48 119.397 81.374 47.032-40.485 23.567-81.374-47.032 40.485-23.567zm50.115 60.254 13.512-7.872c-5.143-2.978-5.143-7.772-.051-10.749l-54.198-31.339c-5.092 2.978-13.411 2.978-18.554 0l-13.512 7.873c5.143 2.977 5.143 7.771.05 10.749l54.2 31.338c5.091-2.977 13.41-2.977 18.553 0z" fill="#7DAB4E"/>
  <path d="m96.762 146.093-40.485 23.566-12.403-7.165 40.485-23.567 12.403 7.166z" fill="#DAC89D"/>
  <path d="m56.227 169.66-.05 11.506L43.774 174l.05-11.506 12.403 7.166z" fill="#877C61"/>
  <path opacity=".3" d="M50.48 111.494 9.995 135.061l-.05 11.506 81.373 47.032v-17.085l8.385-16.602" fill="#000"/>
  <path d="M91.369 189.996v11.456l40.434-23.567v-11.456l-40.434 23.567z" fill="#598D2E"/>
  <path d="M47.89 108.363 7.406 131.93l-.05 11.506 81.374 47.032 40.485-23.566.05-11.506" fill="#406325"/>
  <path d="M80.411 136.622c6.706 3.885 6.756 10.194.101 14.079-6.655 3.886-17.545 3.886-24.25 0-6.706-3.885-6.757-10.194-.102-14.079 6.656-3.886 17.546-3.886 24.251 0z" fill="#7DAB4E"/>
  <path d="M111.418 149.994c-5.092 2.978-5.092 7.772.05 10.749l-13.461 7.872c-5.143-2.977-13.411-2.977-18.554 0l-54.199-31.338c5.093-2.977 5.093-7.771-.05-10.749l13.512-7.872c5.142 2.977 13.41 2.977 18.553 0l54.149 31.338zm-55.157.656c6.706 3.886 17.596 3.886 24.25 0 6.656-3.886 6.656-10.194-.1-14.079-6.705-3.886-17.596-3.886-24.25 0-6.656 3.936-6.605 10.193.1 14.079z" fill="#A7BD56"/>
  <path d="m47.892 108.362 81.374 47.032-40.485 23.567-81.374-47.033 40.485-23.566zm50.115 60.254 13.512-7.872c-5.143-2.978-5.143-7.772-.051-10.749L57.27 118.656c-5.092 2.978-13.411 2.978-18.554 0l-13.512 7.873c5.143 2.977 5.143 7.771.05 10.749l54.2 31.338c5.092-2.977 13.41-2.977 18.553 0z" fill="#7DAB4E"/>
  <path d="m94.173 135.058-40.485 23.567-12.403-7.166 40.485-23.567 12.403 7.166z" fill="#DAC89D"/>
  <path d="m53.638 158.624-.05 11.506-12.403-7.166.05-11.506 12.403 7.166z" fill="#877C61"/>
  <path d="M88.78 178.962v11.455l40.434-23.567v-11.455l-40.435 23.567z" fill="#598D2E"/>
  <path opacity=".4" d="M91.942 170.04v11.455l37.272-21.986v-11.455L91.942 170.04z" fill="#2D451A"/>
  <path d="M52.634 96.823 12.149 120.39l-.05 11.505 81.373 47.033 40.485-23.567.05-11.506" fill="#406325"/>
  <path d="M85.154 125.083c6.706 3.885 6.756 10.193.101 14.079-6.655 3.886-17.545 3.886-24.25 0-6.706-3.886-6.756-10.194-.101-14.079 6.655-3.886 17.545-3.886 24.25 0z" fill="#7DAB4E"/>
  <path d="M116.161 138.456c-5.092 2.977-5.092 7.771.05 10.749l-13.461 7.872c-5.143-2.977-13.411-2.977-18.554 0l-54.198-31.338c5.092-2.977 5.092-7.772-.05-10.749l13.511-7.872c5.143 2.977 13.411 2.977 18.554 0l54.148 31.338zm-55.157.656c6.706 3.886 17.596 3.886 24.251 0 6.655-3.886 6.655-10.194-.1-14.08-6.706-3.885-17.596-3.885-24.251 0-6.656 3.937-6.605 10.194.1 14.08z" fill="#A7BD56"/>
  <path d="m52.636 96.823 81.373 47.032-40.485 23.567-81.374-47.033 40.486-23.566zm50.114 60.254 13.512-7.873c-5.142-2.977-5.142-7.771-.05-10.748l-54.199-31.339c-5.092 2.978-13.41 2.978-18.553 0l-13.512 7.873c5.142 2.977 5.142 7.771.05 10.749l54.199 31.338c5.092-2.978 13.41-2.978 18.553 0z" fill="#7DAB4E"/>
  <path d="m98.916 123.519-40.485 23.567-12.403-7.166 40.485-23.567 12.403 7.166z" fill="#DAC89D"/>
  <path d="m58.381 147.086-.05 11.505-12.403-7.166.05-11.505 12.403 7.166z" fill="#877C61"/>
  <path d="M93.523 167.422v11.456l40.434-23.567v-11.455l-40.434 23.566z" fill="#598D2E"/>
  <path d="m51.42 81.616-40.485 23.567-.05 11.505 81.373 47.033 40.485-23.567.051-11.506" fill="#406325"/>
  <path d="m57.168 131.877-.05 11.506-12.404-7.166.05-11.505 12.404 7.165z" fill="#877C61"/>
  <path d="M83.94 109.875c6.705 3.886 6.755 10.194.1 14.08-6.655 3.886-17.545 3.886-24.25 0-6.706-3.886-6.756-10.194-.101-14.08 6.655-3.885 17.545-3.885 24.25 0z" fill="#7DAB4E"/>
  <path d="M114.946 123.249c-5.093 2.977-5.093 7.771.05 10.749l-13.461 7.872c-5.143-2.977-13.411-2.977-18.554 0l-54.199-31.338c5.092-2.978 5.092-7.772-.05-10.75l13.512-7.872c5.142 2.978 13.41 2.978 18.553 0l54.149 31.339zm-55.157.656c6.706 3.885 17.596 3.885 24.25 0 6.656-3.886 6.656-10.194-.1-14.08-6.706-3.886-17.596-3.886-24.25 0-6.656 3.936-6.605 10.194.1 14.08z" fill="#A7BD56"/>
  <path d="m51.42 81.616 81.374 47.033-40.485 23.567-81.374-47.033L51.42 81.616zm50.115 60.255 13.512-7.873c-5.143-2.977-5.143-7.771-.05-10.749l-54.2-31.338c-5.091 2.977-13.41 2.977-18.553 0l-13.511 7.872c5.142 2.978 5.142 7.772.05 10.749l54.198 31.339c5.093-2.978 13.412-2.978 18.554 0z" fill="#7DAB4E"/>
  <path d="M97.704 108.312 57.22 131.878l-12.403-7.165 40.486-23.567 12.402 7.166z" fill="#DAC89D"/>
  <path d="M92.307 152.215v11.456l40.435-23.567v-11.456l-40.435 23.567z" fill="#598D2E"/>
  <defs>
    <filter id="a" x="90.676" y="62.595" width="142.297" height="91.703" filterUnits="userSpaceOnUse" color-interpolation-filters="sRGB">
      <feFlood flood-opacity="0" result="BackgroundImageFix"/>
      <feBlend in="SourceGraphic" in2="BackgroundImageFix" result="shape"/>
      <feGaussianBlur stdDeviation="3.162" result="effect1_foregroundBlur"/>
    </filter>
    <filter id="b" x="9.676" y="69.595" width="142.297" height="91.703" filterUnits="userSpaceOnUse" color-interpolation-filters="sRGB">
      <feFlood flood-opacity="0" result="BackgroundImageFix"/>
      <feBlend in="SourceGraphic" in2="BackgroundImageFix" result="shape"/>
      <feGaussianBlur stdDeviation="3.162" result="effect1_foregroundBlur"/>
    </filter>
    <filter id="c" x=".676" y="119.595" width="142.297" height="91.703" filterUnits="userSpaceOnUse" color-interpolation-filters="sRGB">
      <feFlood flood-opacity="0" result="BackgroundImageFix"/>
      <feBlend in="SourceGraphic" in2="BackgroundImageFix" result="shape"/>
      <feGaussianBlur stdDeviation="3.162" result="effect1_foregroundBlur"/>
    </filter>
  </defs>
</svg>