<?xml version="1.0" encoding="UTF-8" standalone="no"?><!DOCTYPE svg PUBLIC "-//W3C//DTD SVG 1.1//EN" "http://www.w3.org/Graphics/SVG/1.1/DTD/svg11.dtd"><svg width="100%" height="100%" viewBox="0 0 748 150" version="1.1" xmlns="http://www.w3.org/2000/svg" xmlns:xlink="http://www.w3.org/1999/xlink" xml:space="preserve" xmlns:serif="http://www.serif.com/" style="fill-rule:evenodd;clip-rule:evenodd;stroke-linejoin:round;stroke-miterlimit:1.41421;"><g><path d="M620.876,24.798c0.9,0 1.75,0.28 2.456,0.804c3.292,2.438 1.71,6.046 -3.554,15.75c4.744,4.79 8.544,10.434 11.156,16.698l27.238,0c-8.988,-33.536 -39.794,-57.954 -79.136,-57.954c-39.374,0 -70.282,24.558 -79.528,57.954l27.23,0c8.282,-19.45 27.888,-33.114 52.206,-33.114c11.602,0 22.102,3.128 30.814,8.49c8.284,-8.616 9.64,-8.628 11.118,-8.628Z" style="fill:#6cbe45;fill-rule:nonzero;"/><path d="M42.946,115.552c-14.156,0 -23.95,-11.8 -23.95,-25.97l0,-0.234c0,-14.162 10.026,-25.724 23.95,-25.724c8.256,0 14.748,3.538 21.12,9.32l11.562,-13.332c-7.674,-7.554 -16.99,-12.744 -32.564,-12.744c-25.364,0 -43.064,19.232 -43.064,42.714l0,0.234c0,23.73 18.054,42.488 42.354,42.488c15.93,0 25.368,-5.664 33.866,-14.746l-11.564,-11.682c-6.492,5.898 -12.272,9.676 -21.71,9.676Z" style="fill:#6cbe45;fill-rule:nonzero;"/><path d="M104.148,80.376l0,-12.742l-17.93,0l0,63.252l17.93,0l0,-23.36c0,-15.11 7.316,-22.31 19.234,-22.31l0.94,0l0,-18.762c-10.616,-0.472 -16.516,5.19 -20.174,13.922Z" style="fill:#6cbe45;fill-rule:nonzero;"/><path d="M146.434,94.304c1.414,-8.146 6.25,-13.456 13.686,-13.456c7.55,0 12.268,5.424 13.332,13.456l-27.018,0Zm13.686,-27.85c-18.404,0 -31.262,14.866 -31.262,32.924l0,0.242c0,19.354 14.036,32.684 33.032,32.684c11.442,0 19.94,-4.482 25.836,-11.8l-10.266,-9.082c-4.952,4.604 -9.316,6.488 -15.334,6.488c-8.022,0 -13.686,-4.248 -15.456,-12.39l44.004,0c0.124,-1.654 0.24,-3.31 0.24,-4.726c0,-17.942 -9.674,-34.34 -30.794,-34.34Z" style="fill:#6cbe45;fill-rule:nonzero;"/><path d="M248.498,99.378c0,10.512 -6.96,17.47 -15.338,17.47c-8.376,0 -15.454,-6.958 -15.454,-17.47l0,-0.234c0,-10.62 7.078,-17.466 15.454,-17.466c8.378,0 15.338,6.96 15.338,17.466l0,0.234Zm-0.236,-23.486c-4.25,-5.072 -10.144,-9.438 -19.704,-9.438c-14.98,0 -28.788,11.564 -28.788,32.69l0,0.234c0,21.126 14.04,32.69 28.788,32.69c9.32,0 15.338,-4.362 19.704,-10.264l0,9.082l17.93,0l0,-86.14l-17.93,0l0,31.146Z" style="fill:#6cbe45;fill-rule:nonzero;"/><rect x="280.192" y="44.746" width="18.874" height="15.926" style="fill:#6cbe45;fill-rule:nonzero;"/><rect x="280.66" y="67.634" width="17.936" height="63.252" style="fill:#6cbe45;fill-rule:nonzero;"/><path d="M336.016,51.472l-17.93,0l0,16.162l-7.552,0l0,15.336l7.552,0l0,29.986c0,14.626 7.432,18.996 18.406,18.996c6.012,0 10.382,-1.414 14.15,-3.662l0,-14.394c-2.588,1.422 -5.542,2.248 -8.846,2.248c-4.006,0 -5.78,-2.006 -5.78,-6.136l0,-27.038l14.868,0l0,-15.336l-14.868,0l0,-16.162Z" style="fill:#6cbe45;fill-rule:nonzero;"/><path d="M401.714,81.438c-14.276,-3.658 -17.814,-5.426 -17.814,-10.854l0,-0.234c0,-4.014 3.658,-7.198 10.62,-7.198c6.962,0 14.156,3.068 21.472,8.138l9.442,-13.684c-8.382,-6.726 -18.642,-10.5 -30.676,-10.5c-16.876,0 -28.908,9.91 -28.908,24.892l0,0.236c0,16.404 10.74,21.006 27.372,25.26c13.802,3.54 16.638,5.9 16.638,10.506l0,0.234c0,4.838 -4.488,7.792 -11.914,7.792c-9.442,0 -17.228,-3.896 -24.66,-10.034l-10.742,12.862c9.91,8.852 22.538,13.214 35.042,13.214c17.814,0 30.318,-9.198 30.318,-25.604l0,-0.238c0,-14.402 -9.432,-20.422 -26.19,-24.788Z" style="fill:#2a84c6;fill-rule:nonzero;"/><path d="M461.4,51.472l-17.936,0l0,16.162l-7.546,0l0,15.336l7.546,0l0,29.986c0,14.626 7.438,18.996 18.412,18.996c6.01,0 10.382,-1.414 14.152,-3.662l0,-14.394c-2.594,1.422 -5.544,2.248 -8.848,2.248c-4.006,0 -5.78,-2.006 -5.78,-6.136l0,-27.038l14.87,0l0,-15.336l-14.87,0l0,-16.162Z" style="fill:#2a84c6;fill-rule:nonzero;"/><path d="M509.022,80.376l0,-12.742l-17.936,0l0,63.252l17.936,0l0,-23.36c0,-15.11 7.314,-22.31 19.228,-22.31l0.95,0l0,-18.762c-10.628,-0.472 -16.52,5.19 -20.178,13.922Z" style="fill:#2a84c6;fill-rule:nonzero;"/><path d="M585.446,99.378l0,0.242c0,9.326 -6.134,17.228 -16.4,17.228c-9.914,0 -16.632,-8.142 -16.632,-17.47l0,-0.234c0,-8.808 5.476,-16.342 14.73,-17.152c3.18,-3.788 7.384,-8.748 12.02,-14.152c-3.172,-0.894 -6.556,-1.386 -10.118,-1.386c-19.702,0 -34.336,14.748 -34.336,32.924l0,0.242c0,18.172 14.516,32.684 34.102,32.684c19.7,0 34.336,-14.746 34.336,-32.926l0,-0.234c0,-7.102 -2.242,-13.628 -6.11,-18.964c-4.61,7.56 -8.8,14.314 -11.612,18.77c0.004,0.144 0.02,0.284 0.02,0.428Z" style="fill:#2a84c6;fill-rule:nonzero;"/><path d="M649.786,66.454c-9.086,0 -14.396,4.836 -18.528,10.148l0,-8.968l-17.93,0l0,63.252l17.93,0l0,-35.284c0,-8.502 4.366,-12.868 11.21,-12.868c6.84,0 10.852,4.366 10.852,12.868l0,35.284l17.936,0l0,-40.948c0,-14.518 -7.902,-23.484 -21.47,-23.484Z" style="fill:#2a84c6;fill-rule:nonzero;"/><path d="M730.144,96.194c0,8.616 -6.72,14.638 -15.45,14.638c-8.736,0 -15.338,-5.904 -15.338,-14.638l0,-0.236c0,-8.618 6.602,-14.638 15.338,-14.638c8.73,0 15.45,6.02 15.45,14.638l0,0.236Zm-0.234,-28.56l0,8.258c-4.834,-5.308 -10.614,-9.438 -20.41,-9.438c-14.51,0 -28.08,10.618 -28.08,29.504l0,0.236c0,18.768 13.334,29.504 28.08,29.504c9.554,0 15.338,-3.894 20.644,-10.264l0,3.064c0,11.33 -5.774,17.228 -18.046,17.228c-8.378,0 -14.87,-2.124 -21.356,-5.78l-6.132,13.446c8.02,4.252 17.696,6.608 27.956,6.608c12.272,0 21.356,-2.596 27.258,-8.492c5.304,-5.308 8.016,-13.566 8.016,-24.896l0,-48.978l-17.93,0Z" style="fill:#2a84c6;fill-rule:nonzero;"/><path d="M621.024,28.72c-0.042,-0.026 -0.086,-0.04 -0.148,-0.04c-0.114,0 -0.272,0.062 -0.462,0.158c-0.068,0.034 -0.154,0.094 -0.23,0.14c-0.138,0.084 -0.282,0.176 -0.448,0.298c-0.112,0.082 -0.24,0.184 -0.368,0.284c-0.16,0.124 -0.324,0.258 -0.502,0.408c-0.158,0.134 -0.322,0.276 -0.494,0.428c-0.176,0.154 -0.36,0.322 -0.548,0.492c-0.204,0.188 -0.41,0.374 -0.63,0.584c-0.164,0.154 -0.344,0.328 -0.516,0.494c-1.01,0.974 -2.158,2.126 -3.434,3.444c-0.068,0.07 -0.132,0.136 -0.202,0.208c-0.014,0.016 -0.03,0.032 -0.046,0.05c-0.368,0.38 -0.752,0.784 -1.138,1.19c-0.172,0.184 -0.346,0.366 -0.522,0.552c-0.386,0.41 -0.782,0.828 -1.184,1.258c-0.158,0.17 -0.322,0.346 -0.482,0.52c-1.414,1.516 -2.912,3.148 -4.476,4.872c-0.142,0.154 -0.278,0.306 -0.418,0.46c-0.472,0.522 -0.952,1.052 -1.434,1.588c-0.202,0.224 -0.406,0.45 -0.608,0.678c-0.472,0.524 -0.944,1.052 -1.426,1.59c-0.19,0.214 -0.386,0.432 -0.578,0.648c-1.604,1.798 -3.24,3.646 -4.894,5.526c-0.228,0.26 -0.458,0.52 -0.686,0.78c-0.466,0.532 -0.938,1.066 -1.404,1.602c-0.282,0.32 -0.56,0.638 -0.84,0.958c-0.458,0.526 -0.922,1.052 -1.38,1.58c-0.224,0.256 -0.442,0.51 -0.664,0.764c-0.794,0.912 -1.584,1.822 -2.374,2.732c-0.386,0.446 -0.774,0.894 -1.158,1.338c-0.36,0.414 -0.712,0.824 -1.068,1.238c-0.368,0.422 -0.73,0.844 -1.092,1.264c-0.364,0.42 -0.722,0.838 -1.08,1.256c-0.334,0.386 -0.666,0.77 -0.994,1.154c-0.108,0.126 -0.22,0.256 -0.328,0.382c-0.244,0.284 -0.49,0.57 -0.732,0.852c-0.688,0.802 -1.368,1.594 -2.032,2.374c-0.202,0.236 -0.398,0.464 -0.598,0.7c-0.476,0.556 -0.948,1.108 -1.41,1.652c-0.256,0.3 -0.506,0.592 -0.756,0.888c-0.47,0.55 -0.932,1.094 -1.384,1.626c-0.15,0.182 -0.308,0.362 -0.46,0.54c-0.556,0.658 -1.102,1.3 -1.628,1.924c-0.066,0.078 -0.138,0.16 -0.204,0.238c-0.532,0.634 -1.044,1.238 -1.544,1.83c-0.062,0.078 -0.138,0.162 -0.2,0.238c-0.07,0.084 -0.136,0.164 -0.21,0.248c-0.488,0.584 -0.966,1.148 -1.416,1.684c-0.078,0.094 -0.152,0.182 -0.23,0.272c-0.422,0.506 -0.828,0.988 -1.21,1.448c-0.082,0.098 -0.168,0.198 -0.246,0.292c-0.882,1.058 -1.652,1.98 -2.278,2.742c-0.046,0.054 -0.082,0.098 -0.124,0.146c-0.248,0.304 -0.474,0.576 -0.672,0.822c-0.068,0.082 -0.132,0.162 -0.196,0.238c-0.158,0.196 -0.296,0.366 -0.418,0.518c-0.046,0.056 -0.1,0.122 -0.138,0.172c-0.142,0.178 -0.258,0.328 -0.324,0.416c-4.446,6.008 -6.326,11.792 -0.42,16.18c1.728,1.284 3.352,1.844 4.88,1.844c3.69,0 6.892,-3.252 10.034,-7.502c0.068,-0.092 0.178,-0.25 0.308,-0.448c0.034,-0.048 0.074,-0.108 0.11,-0.16c0.112,-0.17 0.242,-0.366 0.388,-0.59c0.052,-0.084 0.106,-0.166 0.164,-0.254c0.188,-0.29 0.394,-0.61 0.628,-0.972c0.018,-0.032 0.036,-0.06 0.06,-0.094c0.278,-0.436 0.588,-0.922 0.924,-1.456c0.006,-0.006 0.008,-0.012 0.012,-0.016c0.32,-0.504 0.668,-1.056 1.034,-1.638c0.056,-0.09 0.114,-0.182 0.172,-0.274c0.36,-0.574 0.738,-1.176 1.14,-1.816c0.016,-0.026 0.032,-0.052 0.05,-0.078c0.182,-0.294 0.384,-0.62 0.576,-0.924c0.71,-1.14 1.46,-2.348 2.27,-3.648c0.09,-0.146 0.184,-0.296 0.272,-0.444c0.412,-0.656 0.828,-1.334 1.254,-2.026c0.118,-0.188 0.236,-0.378 0.352,-0.57c1.062,-1.722 2.18,-3.534 3.33,-5.418c0.122,-0.198 0.244,-0.4 0.368,-0.598c0.436,-0.716 0.88,-1.442 1.328,-2.176c0.2,-0.326 0.398,-0.654 0.6,-0.984c0.074,-0.122 0.15,-0.246 0.224,-0.368c0.32,-0.526 0.642,-1.058 0.966,-1.59c0.2,-0.328 0.398,-0.652 0.596,-0.984c0.542,-0.89 1.084,-1.786 1.632,-2.69c0.26,-0.43 0.52,-0.864 0.78,-1.298c0.34,-0.562 0.68,-1.124 1.02,-1.69c0.296,-0.492 0.59,-0.986 0.886,-1.478c0.302,-0.5 0.598,-1 0.9,-1.5c0.29,-0.484 0.578,-0.97 0.868,-1.454c0.356,-0.598 0.71,-1.192 1.064,-1.79c0.348,-0.582 0.692,-1.164 1.038,-1.744c0.408,-0.692 0.818,-1.384 1.224,-2.07c0.306,-0.514 0.602,-1.026 0.902,-1.534c0.254,-0.436 0.51,-0.87 0.762,-1.3c0.318,-0.542 0.636,-1.082 0.946,-1.618c0.23,-0.396 0.458,-0.786 0.686,-1.178c0.312,-0.536 0.626,-1.074 0.932,-1.602c0.198,-0.35 0.394,-0.688 0.592,-1.032c0.552,-0.958 1.092,-1.9 1.618,-2.822c0.212,-0.372 0.424,-0.744 0.63,-1.108c0.276,-0.49 0.546,-0.968 0.816,-1.442c0.198,-0.358 0.394,-0.71 0.594,-1.06c0.256,-0.46 0.51,-0.922 0.758,-1.368c0.206,-0.368 0.398,-0.72 0.594,-1.076c0.382,-0.692 0.744,-1.362 1.096,-2.014c0.18,-0.33 0.356,-0.662 0.528,-0.98c0.02,-0.038 0.042,-0.082 0.066,-0.122c0.254,-0.478 0.49,-0.932 0.726,-1.382c0.126,-0.236 0.25,-0.48 0.37,-0.71c0.222,-0.432 0.43,-0.838 0.63,-1.24c0.114,-0.224 0.228,-0.446 0.332,-0.662c0.18,-0.364 0.346,-0.706 0.504,-1.04c0.11,-0.23 0.214,-0.45 0.314,-0.66c0.132,-0.29 0.258,-0.57 0.372,-0.83c0.096,-0.218 0.18,-0.418 0.264,-0.614c0.09,-0.22 0.182,-0.438 0.254,-0.632c0.074,-0.198 0.128,-0.366 0.186,-0.534c0.048,-0.15 0.104,-0.31 0.14,-0.44c0.044,-0.17 0.066,-0.3 0.084,-0.432c0.012,-0.078 0.038,-0.178 0.038,-0.24c0.002,-0.17 -0.026,-0.292 -0.1,-0.348Z" style="fill:#2a84c6;fill-rule:nonzero;"/></g></svg>