<?xml version="1.0" encoding="UTF-8" standalone="no"?><!DOCTYPE svg PUBLIC "-//W3C//DTD SVG 1.1//EN" "http://www.w3.org/Graphics/SVG/1.1/DTD/svg11.dtd"><svg viewBox="0 0 748 150" xmlns="http://www.w3.org/2000/svg" fill-rule="evenodd" clip-rule="evenodd" stroke-linejoin="round" stroke-miterlimit="1.414"><g fill="#ccc"><path d="M620.876 24.798c.9 0 1.75.28 2.456.804 3.292 2.438 1.71 6.046-3.554 15.75a52.356 52.356 0 0 1 11.156 16.698h27.238C649.184 24.514 618.378.096 579.036.096c-39.374 0-70.282 24.558-79.528 57.954h27.23c8.282-19.45 27.888-33.114 52.206-33.114 11.602 0 22.102 3.128 30.814 8.49 8.284-8.616 9.64-8.628 11.118-8.628zM42.946 115.552c-14.156 0-23.95-11.8-23.95-25.97v-.234c0-14.162 10.026-25.724 23.95-25.724 8.256 0 14.748 3.538 21.12 9.32l11.562-13.332c-7.674-7.554-16.99-12.744-32.564-12.744C17.7 46.868 0 66.1 0 89.582v.234c0 23.73 18.054 42.488 42.354 42.488 15.93 0 25.368-5.664 33.866-14.746l-11.564-11.682c-6.492 5.898-12.272 9.676-21.71 9.676zM104.148 80.376V67.634h-17.93v63.252h17.93v-23.36c0-15.11 7.316-22.31 19.234-22.31h.94V66.454c-10.616-.472-16.516 5.19-20.174 13.922zM146.434 94.304c1.414-8.146 6.25-13.456 13.686-13.456 7.55 0 12.268 5.424 13.332 13.456h-27.018zm13.686-27.85c-18.404 0-31.262 14.866-31.262 32.924v.242c0 19.354 14.036 32.684 33.032 32.684 11.442 0 19.94-4.482 25.836-11.8l-10.266-9.082c-4.952 4.604-9.316 6.488-15.334 6.488-8.022 0-13.686-4.248-15.456-12.39h44.004c.124-1.654.24-3.31.24-4.726 0-17.942-9.674-34.34-30.794-34.34zM248.498 99.378c0 10.512-6.96 17.47-15.338 17.47-8.376 0-15.454-6.958-15.454-17.47v-.234c0-10.62 7.078-17.466 15.454-17.466 8.378 0 15.338 6.96 15.338 17.466v.234zm-.236-23.486c-4.25-5.072-10.144-9.438-19.704-9.438-14.98 0-28.788 11.564-28.788 32.69v.234c0 21.126 14.04 32.69 28.788 32.69 9.32 0 15.338-4.362 19.704-10.264v9.082h17.93v-86.14h-17.93v31.146z" fill-rule="nonzero"/><path d="M280.192 44.746h18.874v15.926h-18.874zM280.66 67.634h17.936v63.252H280.66z"/><path d="M336.016 51.472h-17.93v16.162h-7.552V82.97h7.552v29.986c0 14.626 7.432 18.996 18.406 18.996 6.012 0 10.382-1.414 14.15-3.662v-14.394c-2.588 1.422-5.542 2.248-8.846 2.248-4.006 0-5.78-2.006-5.78-6.136V82.97h14.868V67.634h-14.868V51.472zM401.714 81.438C387.438 77.78 383.9 76.012 383.9 70.584v-.234c0-4.014 3.658-7.198 10.62-7.198s14.156 3.068 21.472 8.138l9.442-13.684c-8.382-6.726-18.642-10.5-30.676-10.5-16.876 0-28.908 9.91-28.908 24.892v.236c0 16.404 10.74 21.006 27.372 25.26 13.802 3.54 16.638 5.9 16.638 10.506v.234c0 4.838-4.488 7.792-11.914 7.792-9.442 0-17.228-3.896-24.66-10.034l-10.742 12.862c9.91 8.852 22.538 13.214 35.042 13.214 17.814 0 30.318-9.198 30.318-25.604v-.238c0-14.402-9.432-20.422-26.19-24.788zM461.4 51.472h-17.936v16.162h-7.546V82.97h7.546v29.986c0 14.626 7.438 18.996 18.412 18.996 6.01 0 10.382-1.414 14.152-3.662v-14.394c-2.594 1.422-5.544 2.248-8.848 2.248-4.006 0-5.78-2.006-5.78-6.136V82.97h14.87V67.634H461.4V51.472zM509.022 80.376V67.634h-17.936v63.252h17.936v-23.36c0-15.11 7.314-22.31 19.228-22.31h.95V66.454c-10.628-.472-16.52 5.19-20.178 13.922zM585.446 99.378v.242c0 9.326-6.134 17.228-16.4 17.228-9.914 0-16.632-8.142-16.632-17.47v-.234c0-8.808 5.476-16.342 14.73-17.152a1792.86 1792.86 0 0 1 12.02-14.152 37.199 37.199 0 0 0-10.118-1.386c-19.702 0-34.336 14.748-34.336 32.924v.242c0 18.172 14.516 32.684 34.102 32.684 19.7 0 34.336-14.746 34.336-32.926v-.234c0-7.102-2.242-13.628-6.11-18.964-4.61 7.56-8.8 14.314-11.612 18.77.004.144.02.284.02.428zM649.786 66.454c-9.086 0-14.396 4.836-18.528 10.148v-8.968h-17.93v63.252h17.93V95.602c0-8.502 4.366-12.868 11.21-12.868 6.84 0 10.852 4.366 10.852 12.868v35.284h17.936V89.938c0-14.518-7.902-23.484-21.47-23.484zM730.144 96.194c0 8.616-6.72 14.638-15.45 14.638-8.736 0-15.338-5.904-15.338-14.638v-.236c0-8.618 6.602-14.638 15.338-14.638 8.73 0 15.45 6.02 15.45 14.638v.236zm-.234-28.56v8.258c-4.834-5.308-10.614-9.438-20.41-9.438-14.51 0-28.08 10.618-28.08 29.504v.236c0 18.768 13.334 29.504 28.08 29.504 9.554 0 15.338-3.894 20.644-10.264v3.064c0 11.33-5.774 17.228-18.046 17.228-8.378 0-14.87-2.124-21.356-5.78l-6.132 13.446c8.02 4.252 17.696 6.608 27.956 6.608 12.272 0 21.356-2.596 27.258-8.492 5.304-5.308 8.016-13.566 8.016-24.896V67.634h-17.93z" fill-rule="nonzero"/><path d="M621.024 28.72a.263.263 0 0 0-.148-.04c-.114 0-.272.062-.462.158-.068.034-.154.094-.23.14a5.962 5.962 0 0 0-.448.298c-.112.082-.24.184-.368.284-.16.124-.324.258-.502.408-.158.134-.322.276-.494.428-.176.154-.36.322-.548.492-.204.188-.41.374-.63.584-.164.154-.344.328-.516.494-1.01.974-2.158 2.126-3.434 3.444l-.202.208-.046.05c-.368.38-.752.784-1.138 1.19-.172.184-.346.366-.522.552-.386.41-.782.828-1.184 1.258l-.482.52a481.748 481.748 0 0 0-4.476 4.872c-.142.154-.278.306-.418.46-.472.522-.952 1.052-1.434 1.588-.202.224-.406.45-.608.678-.472.524-.944 1.052-1.426 1.59l-.578.648a1072.39 1072.39 0 0 0-4.894 5.526l-.686.78c-.466.532-.938 1.066-1.404 1.602-.282.32-.56.638-.84.958-.458.526-.922 1.052-1.38 1.58-.224.256-.442.51-.664.764-.794.912-1.584 1.822-2.374 2.732l-1.158 1.338c-.36.414-.712.824-1.068 1.238-.368.422-.73.844-1.092 1.264-.364.42-.722.838-1.08 1.256-.334.386-.666.77-.994 1.154l-.328.382-.732.852c-.688.802-1.368 1.594-2.032 2.374-.202.236-.398.464-.598.7-.476.556-.948 1.108-1.41 1.652-.256.3-.506.592-.756.888-.47.55-.932 1.094-1.384 1.626-.15.182-.308.362-.46.54-.556.658-1.102 1.3-1.628 1.924l-.204.238c-.532.634-1.044 1.238-1.544 1.83-.062.078-.138.162-.2.238-.07.084-.136.164-.21.248-.488.584-.966 1.148-1.416 1.684-.078.094-.152.182-.23.272-.422.506-.828.988-1.21 1.448l-.246.292c-.882 1.058-1.652 1.98-2.278 2.742l-.124.146c-.248.304-.474.576-.672.822-.068.082-.132.162-.196.238l-.418.518a19.34 19.34 0 0 0-.462.588c-4.446 6.008-6.326 11.792-.42 16.18 1.728 1.284 3.352 1.844 4.88 1.844 3.69 0 6.892-3.252 10.034-7.502.068-.092.178-.25.308-.448l.11-.16c.112-.17.242-.366.388-.59.052-.084.106-.166.164-.254l.628-.972a1.04 1.04 0 0 1 .06-.094c.278-.436.588-.922.924-1.456.006-.006.008-.012.012-.016.32-.504.668-1.056 1.034-1.638l.172-.274 1.14-1.816c.016-.026.032-.052.05-.078.182-.294.384-.62.576-.924l2.27-3.648c.09-.146.184-.296.272-.444.412-.656.828-1.334 1.254-2.026.118-.188.236-.378.352-.57 1.062-1.722 2.18-3.534 3.33-5.418.122-.198.244-.4.368-.598l1.328-2.176c.2-.326.398-.654.6-.984l.224-.368.966-1.59c.2-.328.398-.652.596-.984.542-.89 1.084-1.786 1.632-2.69.26-.43.52-.864.78-1.298.34-.562.68-1.124 1.02-1.69l.886-1.478c.302-.5.598-1 .9-1.5l.868-1.454c.356-.598.71-1.192 1.064-1.79.348-.582.692-1.164 1.038-1.744.408-.692.818-1.384 1.224-2.07.306-.514.602-1.026.902-1.534.254-.436.51-.87.762-1.3.318-.542.636-1.082.946-1.618l.686-1.178c.312-.536.626-1.074.932-1.602.198-.35.394-.688.592-1.032.552-.958 1.092-1.9 1.618-2.822l.63-1.108c.276-.49.546-.968.816-1.442.198-.358.394-.71.594-1.06l.758-1.368c.206-.368.398-.72.594-1.076.382-.692.744-1.362 1.096-2.014.18-.33.356-.662.528-.98.02-.038.042-.082.066-.122.254-.478.49-.932.726-1.382.126-.236.25-.48.37-.71.222-.432.43-.838.63-1.24.114-.224.228-.446.332-.662.18-.364.346-.706.504-1.04l.314-.66c.132-.29.258-.57.372-.83.096-.218.18-.418.264-.614.09-.22.182-.438.254-.632.074-.198.128-.366.186-.534.048-.15.104-.31.14-.44.044-.17.066-.3.084-.432.012-.078.038-.178.038-.24.002-.17-.026-.292-.1-.348z" fill-rule="nonzero"/></g></svg>