<svg xmlns="http://www.w3.org/2000/svg" width="40" height="40" viewBox="0 0 40 40"><defs><style>.a{fill:#fff;stroke:#f8b600;stroke-width:2px;}.b{fill:#f8b600;}.c{stroke:none;}.d{fill:none;}</style></defs><g transform="translate(-0.419)"><g class="a" transform="translate(0.419)"><circle class="c" cx="20" cy="20" r="20"/><circle class="d" cx="20" cy="20" r="19"/></g><g transform="translate(9.566 9.565)"><path class="b" d="M147.43,12.8a6.4,6.4,0,1,0-6.351-6.4A6.384,6.384,0,0,0,147.43,12.8Zm-2.041-4.4a.611.611,0,0,1,.846-.177,1.529,1.529,0,0,0,1.11.29.906.906,0,0,0,.9-.764.685.685,0,0,0-.5-.8,6.29,6.29,0,0,1-1.727-.831,1.613,1.613,0,0,1-.537-1.588,1.8,1.8,0,0,1,1.237-1.412l.017,0V2.879a.611.611,0,0,1,1.222,0v.193a2.3,2.3,0,0,1,.823.377.611.611,0,1,1-.732.979,1.08,1.08,0,0,0-.978-.142.594.594,0,0,0-.389.468.424.424,0,0,0,.09.4,5.451,5.451,0,0,0,1.38.64,1.906,1.906,0,0,1,1.295,2.157,2.166,2.166,0,0,1-.667,1.23,2.069,2.069,0,0,1-.822.466v.277a.611.611,0,0,1-1.222,0V9.708a2.568,2.568,0,0,1-1.172-.463.611.611,0,0,1-.177-.846Z" transform="translate(-135.644)"/><path class="b" d="M9.657,364.694H8.264a.611.611,0,0,0-.611.611v4.79a.611.611,0,0,0,.611.611H9.657v-6.012Z" transform="translate(-7.653 -349.838)"/><path class="b" d="M103.694,318.013a2.941,2.941,0,0,0-4.154,0l-1.83,1.83-.75.75a1.617,1.617,0,0,1-1.143.474H92.167a.623.623,0,0,1-.629-.582.612.612,0,0,1,.611-.641h3.708a1.539,1.539,0,0,0,1.52-1.265,3.016,3.016,0,0,0,.045-.519.612.612,0,0,0-.612-.612H94.78a4.8,4.8,0,0,1-1.977-.62,6.322,6.322,0,0,0-2.3-.737,6.469,6.469,0,0,0-2.231.243,1.978,1.978,0,0,0-1.415,1.725h-.008v6.008l10.527,0a2.693,2.693,0,0,0,1.916-.794l4.4-4.4A.612.612,0,0,0,103.694,318.013Z" transform="translate(-83.627 -303.199)"/></g></g></svg>