<svg id="Group_4669" data-name="Group 4669" xmlns="http://www.w3.org/2000/svg" width="32" height="32" viewBox="0 0 32 32">
  <rect id="Rectangle_14285" data-name="Rectangle 14285" width="32" height="32" fill="none"/>
  <g id="Group_4654" data-name="Group 4654" transform="translate(0.64 1.92)">
    <g id="Group_4653" data-name="Group 4653" transform="translate(0 0)">
      <path id="Path_1667" data-name="Path 1667" d="M240.859,99.446l-3.414-3.574a8.042,8.042,0,0,1,.481-1.729,2.1,2.1,0,0,0,.181-.872,2.253,2.253,0,0,0-2.256-2.256c-2.466,0-6.016,2.416-6.016,2.416h-7.519a8.267,8.267,0,0,0-8.271,8.271c0,4.572,3.76,17.294,3.76,17.294h8.914v-3.008h3.008V119H238l2.527-8.406,4.241-1.414v-9.73Zm-9.629,1.5h-7.519V97.943h7.519Zm3.869,3.6a1.5,1.5,0,1,1,1.5-1.5A1.508,1.508,0,0,1,235.1,104.549Z" transform="translate(-214.045 -91.015)" fill="#2f84c6" stroke="#2f84c6" stroke-miterlimit="10" stroke-width="0.15"/>
    </g>
  </g>
</svg>
