<svg xmlns="http://www.w3.org/2000/svg" width="16" height="16" viewBox="0 0 16 16"><defs><style>.a{fill:none;}.b{fill:#6cbe45;}</style></defs><rect class="a" width="16" height="16"/><g transform="translate(1 1.438)"><path class="b" d="M15,8.063,13.447,6.319l.216-2.306-2.3-.513-1.2-2L8,2.413,5.836,1.5l-1.2,1.994L2.336,4l.216,2.312L1,8.063,2.553,9.806l-.216,2.313,2.3.512,1.2,1.994L8,13.706l2.164.913,1.2-1.994,2.3-.512-.216-2.306Zm-8.215,2.95L4.366,8.631l.942-.925L6.785,9.163l3.723-3.669.942.925Z" transform="translate(-1 -1.5)"/></g></svg>